<svg version="1.1" viewBox="0.0 0.0 480.0 480.0" fill="none" stroke="none" stroke-linecap="square" stroke-miterlimit="10" xmlns:xlink="http://www.w3.org/1999/xlink" xmlns="http://www.w3.org/2000/svg"><clipPath id="p.0"><path d="m0 0l480.0 0l0 480.0l-480.0 0l0 -480.0z" clip-rule="nonzero"/></clipPath><g clip-path="url(#p.0)"><path fill="#000000" fill-opacity="0.0" d="m0 0l480.0 0l0 480.0l-480.0 0z" fill-rule="evenodd"/><path fill="#2d9bf0" d="m140.28346 49.984253l0 0c0 -8.653912 7.015381 -15.669292 15.669296 -15.669292l173.5748 0c4.1557617 0 8.141296 1.6508675 11.0798645 4.589428c2.938568 2.9385643 4.5894165 6.9241104 4.5894165 11.0798645l0 0l0 0c0 8.653912 -7.015381 15.669289 -15.669281 15.669289l-173.5748 0c-8.653915 0 -15.669296 -7.015377 -15.669296 -15.669289z" fill-rule="evenodd"/><path fill="#2d9bf0" d="m329.3071 34.31496l0 0c8.775665 0 15.88974 7.11409 15.88974 15.889763l0 104.12598c0 4.2142334 -1.6740723 8.255859 -4.6539917 11.235764c-2.9799194 2.9799042 -7.0215454 4.654007 -11.235748 4.654007l0 0l0 0c-8.775696 0 -15.8897705 -7.11409 -15.8897705 -15.8897705l0 -104.12598c0 -8.775673 7.1140747 -15.889763 15.8897705 -15.889763z" fill-rule="evenodd"/><path fill="#2d9bf0" d="m156.34645 34.31496l0 0c8.871353 0 16.063004 7.1916466 16.063004 16.062992l0 189.22833c0 4.2601776 -1.6923523 8.345856 -4.7047424 11.358261c-3.0124054 3.0123901 -7.0980835 4.7047424 -11.358261 4.7047424l0 0l0 0c-8.871338 0 -16.062988 -7.1916504 -16.062988 -16.063004l0 -189.22833c0 -8.8713455 7.1916504 -16.062992 16.062988 -16.062992z" fill-rule="evenodd"/><path fill="#2d9bf0" d="m140.28346 244.73491l0 0c0 -6.044693 4.9001923 -10.944885 10.944885 -10.944885l36.53543 0l0 0c2.902771 0 5.6866302 1.153122 7.739197 3.2056885c2.0525665 2.0525665 3.2056885 4.836426 3.2056885 7.739197l0 0l0 0c0 6.044693 -4.9001923 10.944885 -10.944885 10.944885l-36.53543 0c-6.044693 0 -10.944885 -4.9001923 -10.944885 -10.944885z" fill-rule="evenodd"/><path fill="#2d9bf0" d="m441.25986 154.51968l0 0c0 8.67131 -7.0295105 15.70079 -15.700806 15.70079l-96.44095 0c-4.164093 0 -8.157654 -1.6541901 -11.102112 -4.5986633c-2.9444885 -2.944458 -4.5986633 -6.938019 -4.5986633 -11.102127l0 0l0 0c0 -8.67131 7.02948 -15.70079 15.700775 -15.70079l96.44095 0c8.671295 0 15.700806 7.02948 15.700806 15.70079z" fill-rule="evenodd"/><path fill="#2d9bf0" d="m425.19684 138.8189l0 0c8.871368 0 16.063019 7.1916504 16.063019 16.063004l0 154.20471c0 4.2601624 -1.6923523 8.345856 -4.7047424 11.358246c-3.0124207 3.0124207 -7.0980835 4.7047424 -11.358276 4.7047424l0 0l0 0c-8.871338 0 -16.062988 -7.1916504 -16.062988 -16.062988l0 -154.20471c0 -8.871353 7.1916504 -16.063004 16.062988 -16.063004z" fill-rule="evenodd"/><path fill="#2d9bf0" d="m441.25986 309.41733l0 0c0 8.68869 -7.0436096 15.732269 -15.7323 15.732269l-51.811035 0l0 0c-4.172455 0 -8.174011 -1.6575012 -11.12439 -4.6078796c-2.9503784 -2.9503784 -4.6078796 -6.951935 -4.6078796 -11.12439l0 0l0 0c0 -8.68869 7.043579 -15.7323 15.732269 -15.7323l51.811035 0c8.68869 0 15.7323 7.0436096 15.7323 15.7323z" fill-rule="evenodd"/><path fill="#2d9bf0" d="m184.04724 252.218l0 0c-4.861847 -3.5920258 -5.889557 -10.444 -2.295456 -15.304321l33.47281 -45.26538c1.7259521 -2.334015 4.30867 -3.8871918 7.180008 -4.317856c2.8713531 -0.43066406 5.796097 0.296463 8.130829 2.021408l0 0l0 0c4.861847 3.5920258 5.889557 10.444 2.295456 15.304321l-33.472794 45.26538c-3.594101 4.860321 -10.449005 5.8884735 -15.310852 2.2964478z" fill-rule="evenodd"/><path fill="#169297" d="m220.70912 187.66934l0 0c5.6707 -2.087387 11.962067 0.81666565 14.05217 6.486374l31.013763 84.12959c1.0036926 2.7226868 0.8845215 5.732086 -0.33132935 8.366089c-1.2158508 2.6340332 -3.428772 4.6769714 -6.1519165 5.679352l0 0l0 0c-5.6707153 2.0873718 -11.962082 -0.8166809 -14.052185 -6.4863586l-31.013763 -84.12962c-2.0901031 -5.6697083 0.81256104 -11.958054 6.483261 -14.045425z" fill-rule="evenodd"/><path fill="#0ca789" d="m339.71652 430.01575l0 0c0 8.6539 -7.015381 15.669281 -15.669281 15.669281l-173.5748 0c-4.1557617 0 -8.141296 -1.6508484 -11.0798645 -4.5894165c-2.938568 -2.938568 -4.589432 -6.924103 -4.589432 -11.0798645l0 0l0 0c0 -8.6539 7.015381 -15.669281 15.669296 -15.669281l173.5748 0c8.6539 0 15.669281 7.015381 15.669281 15.669281z" fill-rule="evenodd"/><path fill="#0ca789" d="m150.69292 445.68503l0 0c-8.775681 0 -15.8897705 -7.1140747 -15.8897705 -15.88974l0 -104.12601c0 -4.214203 1.6741028 -8.255829 4.654007 -11.235748c2.9799042 -2.9799194 7.02153 -4.6539917 11.235764 -4.6539917l0 0l0 0c8.775665 0 15.889755 7.1140747 15.889755 15.88974l0 104.12601c0 8.775665 -7.11409 15.88974 -15.889755 15.88974z" fill-rule="evenodd"/><path fill="#0ca789" d="m323.65353 445.68503l0 0c-8.871338 0 -16.062988 -7.1916504 -16.062988 -16.062988l0 -189.22833c0 -4.2601776 1.6923523 -8.345856 4.7047424 -11.358261c3.0123901 -3.0123901 7.0980835 -4.7047424 11.358246 -4.7047424l0 0l0 0c8.871368 0 16.062988 7.1916504 16.062988 16.063004l0 189.22833c0 8.871338 -7.19162 16.062988 -16.062988 16.062988z" fill-rule="evenodd"/><path fill="#0ca789" d="m38.740158 325.48032l0 0c0 -8.671295 7.02948 -15.700775 15.700787 -15.700775l96.44095 0c4.164093 0 8.157654 1.6541748 11.102127 4.598633c2.9444733 2.9444885 4.598648 6.938019 4.598648 11.102142l0 0l0 0c0 8.671295 -7.02948 15.700775 -15.700775 15.700775l-96.44095 0c-8.671307 0 -15.700787 -7.02948 -15.700787 -15.700775z" fill-rule="evenodd"/><path fill="#0ca789" d="m54.80315 341.1811l0 0c-8.8713455 0 -16.062992 -7.1916504 -16.062992 -16.062988l0 -154.20471c0 -4.2601776 1.6923447 -8.345856 4.7047424 -11.358261c3.012394 -3.0123901 7.0980797 -4.7047424 11.35825 -4.7047424l0 0l0 0c8.8713455 0 16.062992 7.1916504 16.062992 16.063004l0 154.20471c0 8.871338 -7.1916466 16.062988 -16.062992 16.062988z" fill-rule="evenodd"/><path fill="#0ca789" d="m38.740158 170.58267l0 0c0 -8.68869 7.043583 -15.732285 15.732285 -15.732285l51.81102 0l0 0c4.1724625 0 8.174034 1.6575165 11.124405 4.6078796c2.9503784 2.9503784 4.6078796 6.95195 4.6078796 11.124405l0 0l0 0c0 8.688705 -7.043579 15.732285 -15.732285 15.732285l-51.81102 0c-8.688702 0 -15.732285 -7.043579 -15.732285 -15.732285z" fill-rule="evenodd"/><path fill="#0ca789" d="m281.29135 235.27559l0 0c0 -6.044693 4.900177 -10.944885 10.944855 -10.944885l36.53546 0l0 0c2.9027405 0 5.686615 1.153122 7.739197 3.2056885c2.0525513 2.0525665 3.205658 4.836441 3.205658 7.739197l0 0l0 0c0 6.044693 -4.900177 10.944885 -10.944855 10.944885l-36.53546 0c-6.0446777 0 -10.944855 -4.9001923 -10.944855 -10.944885z" fill-rule="evenodd"/><path fill="#0ca789" d="m250.22057 290.86624l0 0c-4.861847 -3.5920105 -5.8901215 -10.444397 -2.2967072 -15.305237l34.13672 -46.176926c1.7256165 -2.3342438 4.308014 -3.8876495 7.179138 -4.3184967c2.8710938 -0.4308319 5.7957153 0.29618835 8.130463 2.0211334l0 0l0 0c4.861847 3.5920258 5.890106 10.444412 2.296692 15.305237l-34.13672 46.176926c-3.5934143 4.86084 -10.447739 5.8894043 -15.309586 2.2973633z" fill-rule="evenodd"/></g></svg>