<svg version="1.1" viewBox="0.0 0.0 1080.0 1080.0" fill="none" stroke="none" stroke-linecap="square" stroke-miterlimit="10" xmlns:xlink="http://www.w3.org/1999/xlink" xmlns="http://www.w3.org/2000/svg"><clipPath id="p.0"><path d="m0 0l1080.0 0l0 1080.0l-1080.0 0l0 -1080.0z" clip-rule="nonzero"/></clipPath><g clip-path="url(#p.0)"><path fill="#000000" fill-opacity="0.0" d="m0 0l1080.0 0l0 1080.0l-1080.0 0z" fill-rule="evenodd"/><path fill="#000000" d="m330.05655 147.275l0 0c0 -17.88591 14.49939 -32.3853 32.385284 -32.3853l366.65405 0c8.589111 0 16.826477 3.4120178 22.899902 9.4854355c6.0733643 6.0734177 9.485413 14.310753 9.485413 22.899864l0 0l0 0c0 17.885895 -14.49939 32.385284 -32.385315 32.385284l-366.65405 0c-17.885895 0 -32.385284 -14.49939 -32.385284 -32.385284z" fill-rule="evenodd"/><path fill="#000000" d="m728.02686 114.889694l0 0c18.476318 0 33.454346 14.978012 33.454346 33.454315l0 213.98088c0 8.87265 -3.5246582 17.381866 -9.798523 23.655792c-6.273926 6.2738953 -14.783142 9.798523 -23.655823 9.798523l0 0l0 0c-18.476257 0 -33.454285 -14.977997 -33.454285 -33.454315l0 -213.98088c0 -18.476303 14.978027 -33.454315 33.454285 -33.454315z" fill-rule="evenodd"/><path fill="#000000" d="m363.87558 114.889694l0 0c18.677734 0 33.81903 15.141296 33.81903 33.81903l0 389.85706c0 8.96936 -3.5630798 17.57135 -9.905365 23.913696c-6.3423157 6.342285 -14.944305 9.905334 -23.913666 9.905334l0 0l0 0c-18.677734 0 -33.81903 -15.141296 -33.81903 -33.81903l0 -389.85706c0 -18.677734 15.141296 -33.81903 33.81903 -33.81903z" fill-rule="evenodd"/><path fill="#000000" d="m330.05655 549.78564l0 0c0 -12.493164 10.127716 -22.62091 22.62088 -22.62091l77.76666 0l0 0c5.99942 0 11.753113 2.3833008 15.995361 6.6255493c4.2422485 4.2422485 6.625519 9.995911 6.625519 15.995361l0 0l0 0c0 12.493164 -10.127716 22.62091 -22.62088 22.62091l-77.76666 0c-12.493164 0 -22.62088 -10.127747 -22.62088 -22.62091z" fill-rule="evenodd"/><path fill="#000000" d="m963.73224 363.32883l0 0c0 17.921844 -14.528564 32.45038 -32.45044 32.45038l-204.25885 0c-8.606384 0 -16.86023 -3.4188538 -22.945862 -9.504486c-6.0856323 -6.0856323 -9.504517 -14.339508 -9.504517 -22.945892l0 0l0 0c0 -17.921844 14.528564 -32.45038 32.45038 -32.45038l204.25885 0c17.921875 0 32.45044 14.528534 32.45044 32.45038z" fill-rule="evenodd"/><path fill="#000000" d="m929.9132 330.87845l0 0c18.677734 0 33.81903 15.141266 33.81903 33.819l0 317.47028c0 8.96936 -3.5631104 17.57135 -9.9053955 23.913635c-6.342285 6.342346 -14.944275 9.9053955 -23.913635 9.9053955l0 0l0 0c-18.677734 0 -33.81903 -15.141296 -33.81903 -33.81903l0 -317.47028c0 -18.677734 15.141296 -33.819 33.81903 -33.819z" fill-rule="evenodd"/><path fill="#000000" d="m963.73224 683.47125l0 0c0 17.957825 -14.557678 32.515503 -32.515503 32.515503l-110.297485 0l0 0c-8.623596 0 -16.894043 -3.4257202 -22.991882 -9.52356c-6.0978394 -6.0978394 -9.52356 -14.368286 -9.52356 -22.991943l0 0l0 0c0 -17.957825 14.557678 -32.515503 32.51544 -32.515503l110.297485 0c17.957825 0 32.515503 14.557678 32.515503 32.515503z" fill-rule="evenodd"/><path fill="#000000" d="m422.1968 565.2517l0 0c-10.2361145 -7.424011 -12.366486 -21.630005 -4.7582703 -31.72998l70.32449 -93.35651c3.653595 -4.8501587 9.1102295 -8.085449 15.169525 -8.99411c6.059326 -0.9086609 12.224915 0.5837097 17.140503 4.148834l0 0l0 0c10.236145 7.424011 12.366455 21.629974 4.758301 31.72995l-70.324524 93.35654c-7.6082153 10.099976 -22.073883 12.269287 -32.310028 4.845276z" fill-rule="evenodd"/><path fill="#000000" d="m499.3684 431.83307l0 0c11.932831 -4.3226013 25.222412 1.8054199 29.683105 13.687317l65.043274 173.25531c2.1420898 5.7058716 1.920105 12.002686 -0.6171875 17.505127c-2.5372925 5.5025024 -7.182007 9.759949 -12.9123535 11.835693l0 0l0 0c-11.9328 4.322632 -25.222351 -1.8053589 -29.683044 -13.687317l-65.043304 -173.25525c-4.460663 -11.8819275 1.5966797 -25.01828 13.5295105 -29.340881z" fill-rule="evenodd"/><path fill="#000000" d="m749.94293 932.72406l0 0c0 17.885925 -14.49939 32.385315 -32.385315 32.385315l-366.65402 0c-8.589111 0 -16.826447 -3.4119873 -22.899872 -9.485413c-6.0734253 -6.0734253 -9.485443 -14.310791 -9.485443 -22.899902l0 0l0 0c0 -17.885864 14.49939 -32.385254 32.385315 -32.385254l366.65402 0c17.885925 0 32.385315 14.49939 32.385315 32.385254z" fill-rule="evenodd"/><path fill="#000000" d="m351.9726 965.1094l0 0c-18.476288 0 -33.454315 -14.978027 -33.454315 -33.454285l0 -213.9809c0 -8.872681 3.5246582 -17.381897 9.798553 -23.655762c6.2738953 -6.273926 14.783142 -9.798584 23.655762 -9.798584l0 0l0 0c18.476318 0 33.454315 14.978027 33.454315 33.454346l0 213.9809c0 18.476257 -14.977997 33.454285 -33.454315 33.454285z" fill-rule="evenodd"/><path fill="#000000" d="m716.1239 965.1094l0 0c-18.677734 0 -33.81903 -15.141296 -33.81903 -33.81903l0 -389.85706c0 -8.96936 3.5631104 -17.571411 9.9053955 -23.913696c6.342285 -6.342285 14.944275 -9.905334 23.913635 -9.905334l0 0l0 0c18.677734 0 33.81903 15.141296 33.81903 33.81903l0 389.85706c0 18.677734 -15.141296 33.81903 -33.81903 33.81903z" fill-rule="evenodd"/><path fill="#000000" d="m116.26727 716.6702l0 0c0 -17.921814 14.528534 -32.45038 32.45038 -32.45038l204.25888 0c8.606384 0 16.86026 3.4188843 22.945892 9.504517c6.0856323 6.0856323 9.504486 14.339539 9.504486 22.945862l0 0l0 0c0 17.921875 -14.528534 32.45044 -32.45038 32.45044l-204.25888 0c-17.921844 0 -32.45038 -14.528564 -32.45038 -32.45044z" fill-rule="evenodd"/><path fill="#000000" d="m150.08629 749.12067l0 0c-18.67772 0 -33.819016 -15.141296 -33.819016 -33.81903l0 -317.47028c0 -8.96936 3.5630646 -17.57138 9.905357 -23.913666c6.342308 -6.342285 14.944298 -9.905365 23.913658 -9.905365l0 0l0 0c18.677734 0 33.81903 15.141296 33.81903 33.81903l0 317.47028c0 18.677734 -15.141296 33.81903 -33.81903 33.81903z" fill-rule="evenodd"/><path fill="#000000" d="m116.26727 396.5278l0 0c0 -17.957794 14.557678 -32.515472 32.515488 -32.515472l110.29747 0l0 0c8.623627 0 16.894073 3.4257202 22.991913 9.52356c6.0978394 6.0978394 9.52356 14.368286 9.52356 22.991913l0 0l0 0c0 17.957825 -14.557678 32.515503 -32.515472 32.515503l-110.29747 0c-17.95781 0 -32.515488 -14.557678 -32.515488 -32.515503z" fill-rule="evenodd"/><path fill="#000000" d="m626.9345 530.2351l0 0c0 -12.493164 10.127747 -22.62085 22.62091 -22.62085l77.76666 0l0 0c5.9993896 0 11.753113 2.3832397 15.995361 6.6254883c4.2422485 4.2422485 6.6254883 9.995972 6.6254883 15.995361l0 0l0 0c0 12.493164 -10.127686 22.62091 -22.62085 22.62091l-77.76666 0c-12.493164 0 -22.62091 -10.127747 -22.62091 -22.62091z" fill-rule="evenodd"/><path fill="#000000" d="m561.5181 645.1299l0 0c-10.236145 -7.424011 -12.367676 -21.63086 -4.7609253 -31.731873l71.72229 -95.24042c3.652893 -4.850708 9.108887 -8.086456 15.167664 -8.995483c6.058838 -0.9090576 12.224182 0.5831299 17.13971 4.1482544l0 0l0 0c10.236145 7.424011 12.367676 21.63086 4.7609253 31.731934l-71.72229 95.24036c-7.6067505 10.101074 -22.07129 12.27124 -32.307373 4.847229z" fill-rule="evenodd"/></g></svg>