<?xml version="1.0" encoding="UTF-8"?><svg id="Layer_1" xmlns="http://www.w3.org/2000/svg" viewBox="0 0 430.5 505.77"><defs><style>.cls-1{stroke-width:8px;}.cls-1,.cls-2{fill:none;stroke:#000;stroke-miterlimit:10;}.cls-2{stroke-width:10px;}</style></defs><path class="cls-1" d="m332.97,300.13c-3.45,2.36-3.64,13.13-3.64,16.47v75.74c0,3.48-.22,6.98.72,10.41.22.8-.31,1.93.7,2.35"/><path class="cls-1" d="m82.75,206.55c1.33-1.83,4.28-4.37,2.83-9.66-.72-2.62.43-3.48,2.35-4.12,13.9-4.67,27.63-9.85,42.12-12.59,11.59-2.19,23.05-5.16,34.69-7.03,12.98-2.09,25.95-4.34,39.04-5.83,18.43-2.1,36.89-1,52.48-1.39l-.03.02c14.35,0,25.85-.04,37.35,0,10.88.05,21.51,1.95,32.02,4.64,2.08.53,2.96,1.64,3.02,3.94.25,9.5,2.23,13.29,3.45,14.06"/><path class="cls-2" d="m304.33,438.08c-4-.05-16.81.61-20.81.61-7.12,0-14.26.2-21.37-.05-10.75-.37-21.44.64-32.16.95-10.19.29-20.41.67-30.57,1.47-9.64.77-19.2,2.55-28.81,3.67-16.81,1.97-33.42,5.14-49.66,9.8-9.77,2.81-19.19,6.87-28.75,10.41-3.71,1.37-6.83,3.96-11.96,2.14"/><path d="m73.52,443.65c.14,9.93-1.91,17.73-4.94,25.34-.82,2.05-1.78,2.46-2.99.47-1.01-1.65-2.44-2.78-3.89-3.98-4.84-4-8.02-9.02-9.95-15.08-6.96-21.9-14.12-43.73-21.28-65.56-1.05-3.2-2.29-6.36-3.77-9.38-.83-1.69-1.07-4.56-4.12-3.9-2.7.59-4.84,4.14-4.23,7.03.96,4.52,1.96,9.04,3.21,13.48,5.8,20.54,11.36,41.16,18.27,61.38,3.48,10.18,9.05,18.83,16.38,26.53,1.41,1.49,3.96,3.1,2.95,5.17-.91,1.87-3.42.15-5.16-.04-8.57-.94-17.17-1.94-24.72-6.64-9.88-6.15-15.88-15.43-19.96-25.99C2.76,435.5.21,417.64,0,399.61c-.17-17.26,2.5-34.34,6.85-51.08,2.53-9.73,4.64-10.27,12.23-3.79,21.28,18.18,37.68,39.91,47.7,66.15,4.21,11.03,6.1,22.63,6.7,32.76h.03Z"/><path d="m294.62,115.78c11.82,1.18,23.44,3.42,34.93,6.43,7.86,2.06,15.48,4.83,23.12,7.59,7.73,2.79,14.56,7.13,21.37,11.54,1.81,1.17,3.29,2.68,4.33,4.59,1.77,3.27,1.39,6.9-.94,8.96-2.95,2.62-7.89,3.01-10.7.71-13.3-10.91-28.88-16.69-45.51-19.8-9.42-1.76-18.84-3.81-28.52-3.96-6.19-.09-9.72-3.29-9.67-8.17.04-4.39,3.97-7.59,9.71-7.9.62-.03,1.25,0,1.87,0h.01Z"/><path d="m405.4,118.3c-2.01.04-3.55-.82-4.65-2.24-3.18-4.09-7.63-6.4-12.08-8.63-16.27-8.14-33.35-13.9-51.31-16.96-1.35-.23-2.7-.53-4.01-.9-4.89-1.38-7.55-5.23-6.5-9.35,1.09-4.29,5.51-6.99,10.21-5.83,10.04,2.48,20.12,4.89,30.02,7.88,14.01,4.22,27.42,9.9,39.62,18.15,2.08,1.41,3.96,3.08,5.32,5.2,1.51,2.34,2.74,4.8,1.13,7.68-1.74,3.1-4.44,4.6-7.75,5h0Z"/><path d="m145.83,92.57c2.93-.2,5.19.3,7.13,1.9,2.49,2.05,4,4.56,3.08,7.85-.92,3.31-3.17,5.47-6.69,5.6-11.28.41-22.33,2.06-33.18,5.19-7.69,2.22-15.23,4.77-22.38,8.39-3.01,1.53-5.73,3.42-8.02,6.03-3.54,4.04-7.8,4.62-10.82,1.84-3.99-3.67-4.19-9.01-.48-12.99,2.06-2.21,4.45-3.99,7.14-5.39,19.84-10.33,40.96-16.26,63.18-18.42.49-.05,1,0,1.03,0h.01Z"/><path d="m110.23,51.26c5.91-.02,9.73,3.24,9.89,7.8.14,4.17-3.67,7.84-8.52,8.33-19.75,2.01-38.41,7.37-55.34,18.03-1.6,1-3.28,1.82-5.17,2.1-3.71.55-6.56-.95-7.96-4.15-1.47-3.36-.54-7.1,2.56-9.77,4.22-3.65,9.37-5.69,14.32-8.05,15.11-7.21,31.09-11.51,47.57-14.07,1.11-.17,2.24-.19,2.65-.22h0Z"/><path d="m386.17,53.12c.15,3.55-.63,7.06-1.97,10.47-1.95,4.96-3.93,5.91-9.28,4.91-5.18-.97-9.99-3.37-15.15-4.1-6.81-.96-11.44-5.13-16.15-9.4-1.19-1.08-2.62-2.1-2.16-4.05.49-2.04,2.01-3.23,3.87-3.69,2.7-.68,5.54-.8,8.03.67,5.1,3.02,10.84,4.42,16.27,6.61,1.24.5,2.78,1.13,3.84-.14,1.11-1.33.38-2.83-.32-4.2-1.92-3.77-4.49-6.85-8.54-8.53-1.24-.52-2.31-1.45-3.46-2.2-3.77-2.44-4.56-4.55-2.97-7.97,1.32-2.85,5.31-4.67,8.56-3.76,1.31.37,2.75.81,3.74,1.66,5.29,4.54,10.72,8.98,14.2,15.22,1.47,2.63,1.64,5.46,1.5,8.49h-.01,0Z"/><path d="m76.95,29.99c-.65-13.71,6.98-22.34,17.9-28.84,2.66-1.58,5.53-1.53,8.19.15,1.96,1.25,3.54,2.89,3.32,5.47-.22,2.59-2.25,3.6-4.33,4.05-5.75,1.26-9.12,5.41-12.3,9.78-.79,1.09-2.36,2.52-1.2,3.94.96,1.18,2.63.18,3.87-.23,8.03-2.64,16.32-3.4,24.71-3.75,3.81-.16,6.34,1.4,7.61,4.77,1.22,3.23-.74,5.59-3.09,7.38-2.73,2.07-5.79,3.13-8.96.78-1.17-.87-2.25-1.3-3.78-1.06-8.28,1.31-16.44,2.91-24.11,6.54-6.04,2.86-7.75,1.62-7.83-5.23-.01-1.25,0-2.5,0-3.75h0Z"/><path d="m281.27,99.8c-1.27-15.1-7.75-24.88-22.98-27.33,5.27-2.41,10.28-4.75,15.04-7.57,5.27-3.13,7.18-8.38,8.59-14.1.49.33.94.46,1,.7,2.58,9.98,10.22,14.95,18.75,19.06.98.47,2.54.58,2.54,1.86,0,1.38-1.65,1.22-2.6,1.63-8.77,3.86-14.35,10.53-17.37,19.52-.61,1.82-.71,3.89-2.97,6.24h0Z"/><path d="m225.18,101.04c-2.73-9.11-3.67-18.37-15.27-20.66,7.99-4.88,15.7-9.27,15.67-19.8,2.36,8.91,6.9,15.55,15.48,19.71-11.55,2.22-12.34,11.89-15.88,20.75h0Z"/><path d="m191.67,120.3c-.61-5.44-2.44-9.86-8.07-12.39,5.17-.85,7.32-4.03,8.33-8.48.32-1.39,1.39-.54,1.81.29,1.83,3.67,4.45,6.47,8.68,8.08-7.61.8-8.3,7.27-10.74,12.5h0Z"/><path d="m78.53,505.77c.2-10.59-2.58-19.77-7.26-28.43-.48-.89-1.04-1.83,0-2.68,1.16-.95,2.53-.72,3.42.19,1.01,1.04,2.02,2.37,2.36,3.75,1.45,5.79,3.53,11.45,3.74,17.52.11,3.16-.23,6.18-2.27,9.65h.01Z"/><path d="m155.61,79.91c-.75-4.5-1-9.21-7.69-10.36,3.93-2.22,6.05-4.3,7.01-7.49.62-2.06,1.81-1.27,2.52.07,1.17,2.21,2.24,4.43,4.48,5.83.89.56.94,1.24.11,2.12-2.83,3.01-4.97,6.29-6.44,9.84h.01Z"/><path d="m194.41,34.34c1.62,2.76,3.17,4.33,5,5.64,1.12.81,1.84,1.96.52,3.09-2.2,1.87-3.55,4.3-5.02,7.65-1.1-3.67-1.96-6.58-5.61-7.38-1.15-.25-.28-1.4.48-1.92,2.21-1.54,3.74-3.59,4.63-7.07h0Z"/><path d="m403.26,341.9c14.41-.04,24.22,9.85,26.35,20.25,2.22,10.85.56,21.4-8.05,29.69-23.64,22.78-46.81,46.02-70,69.25-4.23,4.24-8.46,8.49-12.73,12.69-7.19,7.08-13.62,6.5-19.66-1.6-1.51-2.02-1.38-3.75.46-5.22,14.56-11.67,26.7-25.84,40.05-38.76,16.75-16.22,33.23-32.72,49.79-49.12,6.01-5.95,6.33-10.86,1.26-17.06-3.91-4.78-10.35-5.18-14.71-.71-22.31,22.85-44.52,45.81-66.89,68.61-7.76,7.91-16,15.36-23.45,23.59-1.71,1.89-3.48,1.86-5.63.51-3.04-1.9-4.9-4.92-7.38-7.33-1.28-1.25-.78-3.35,0-4.96.48-.99,1.19-1.94,2-2.69,11.3-10.4,21.22-22.14,32.04-33.02,17.05-17.13,33.9-34.46,50.59-51.94,7.18-7.52,15.4-12.14,25.96-12.17h0Z"/><path d="m76.34,204.4c-.19-.88.9-1.11,1.61-1.36,1.59-.57,3.16-1.2,4.79-1.62,4.18-1.09,4.95-.56,4.97,3.56.05,8.48.01,16.96.01,25.44h.02,0c1.06,31.49.77,62.99.71,94.5-.02,10.49-1.15,20.97-.67,31.47,1.56,34.4.29,68.83.7,103.24.03,2.2,1.7,4.85-.24,6.55-2.47,2.17-5.47,3.84-8.45,5.35-2.38,1.21-2.13-.93-2.16-2.21"/><path d="m247.27,393.34c15.23-.23,30.04.63,44.84,1.51,4.7.28,7.43,3.32,7.67,8.42.22,4.61-2.13,7.63-6.66,8.51-3.01.59-5.95-.27-8.92-.4-19.92-.84-39.83-.67-59.76.44-17.3.96-34.53,2.58-51.76,4.16-11.77,1.08-23.44,3.28-35.11,5.24-10.24,1.72-12.76-.28-12.11-10.62.21-3.32,1.68-6.39,6.19-7.09,22.29-3.44,44.59-6.87,67.08-8.49,16.26-1.18,32.59-2.05,48.53-1.68h0Z"/><path d="m282.6,376.84c-13.34-.39-26.68-.98-40.04-.79-17.46.24-34.85,1.75-52.26,2.83-18.46,1.15-36.62,4.43-54.92,6.71-2.77.35-6.1,1.57-8.28-1.56-2.29-3.29-2.4-10.37-.37-13.3,1.33-1.92,3.31-2.52,5.48-2.82,13.22-1.84,26.41-3.9,39.66-5.48,10.39-1.24,20.86-1.8,31.27-2.85,12.56-1.27,25.22-1.24,37.74-1.09,17.19.2,34.44-.48,51.61,1.16,4.04.39,5.74,3.09,6.81,6.5.86,2.74-.48,8.42-2.27,9.82-1.06.83-2.31.88-3.56.88-3.62.01-7.24,0-10.86,0h-.01Z"/><path d="m246.72,322.96c15.29-.32,29.37.03,43.42,1.44,6.77.68,9.76,4.45,8.86,11.17-.56,4.21-2.38,5.81-6.68,6.04-4.63.25-9.21-.65-13.82-.68-17.73-.11-35.48-.46-53.19.1-13.31.42-26.62,1.43-39.92,2.49-17.94,1.43-35.65,4.27-53.42,6.84-4.18.61-5.45-.51-5.95-4.57-1.54-12.54,1.98-12.74,11.64-14.11,13.71-1.94,27.41-3.91,41.16-5.43,10.77-1.18,21.6-1.98,32.42-2.55,12.21-.65,24.43-1.29,35.48-.75h0Z"/><path d="m254.3,236.73c-21.84-.43-43.54,1.02-65.27,3.4-18.61,2.04-36.98,5.33-55.44,8.19-5.22.81-7.21-.71-7.55-5.94-.08-1.24-.08-2.49-.05-3.74.13-5.31,1.24-7.12,6.48-7.96,17.33-2.77,34.48-6.51,51.99-8.4,31.06-3.36,62.17-3.8,93.33-3.56,3.62.03,6.86.53,9.47,3.45,2.59,2.9,3.55,6.02,2.02,9.62-1.48,3.46-4.27,4.99-8.04,4.97-8.98-.05-17.96-.02-26.94,0v-.02h0Z"/><path d="m250.64,201.51c-20.56-.82-42.72,2-64.93,4.18-17.78,1.75-35.34,4.73-52.82,8.28-4.56.92-5.82.1-6.99-4.39-.4-1.55-.57-3.2-.59-4.8-.07-4.9,1.39-6.76,6.1-7.98,11.74-3.04,23.84-4.15,35.7-6.55,35.64-7.2,71.74-6.16,107.78-5.97,5.45.03,8.53,3.78,8.41,9.74-.1,4.73-3.06,7.45-8.36,7.48-7.49.05-14.98,0-24.31,0h0Z"/><path d="m326.62,234.17c-.84-15.25-.7-34.22-.95-49.47-.09-5.38,3.76-2.79,8.9-1.41,6.04,1.63,12.4.95,18.34,3.18,3,1.13,3.69,3.01,2.96,5.51-2.52,8.55-3.33,17.42-5.28,26.08-2.14,9.51-4.12,19.08-5.59,28.7-1.72,11.3-3.59,22.62-5.78,33.8-1.83,9.34-3.16,18.73-4.88,28.07-.12.65-.24,1.31-.43,1.95-.47,1.56-1.5,2.69-3.18,2.39-1.8-.33-5.04-1.49-5.06-2.75-.05-5.84.48-12.46.47-18.3"/><path d="m138.73,305c-7.71.05-10.22-1.58-10.48-5.71-.33-5.25,2.9-8.97,8.38-9.42,10.95-.89,21.59-3.81,32.5-4.98,2.63-.28,5.27-.72,7.61.88,2.78,1.91,4.3,4.5,3.54,8-.89,4.09-3.82,7.04-7.99,7.24-7.24.35-14.36,1.51-21.52,2.46-4.57.61-9.14,1.16-12.03,1.52h0Z"/><path d="m283.38,470.34v-3.64c-.01-2.56.81-4.64,3.27-5.81,2.47-1.18,4.73-.5,6.58,1.16,3.99,3.56,7.83,7.28,11.72,10.95,1.54,1.45,3,2.99,4.57,4.41,3.1,2.81,3.14,5.72-.08,8.42-2.12,1.78-4.56,3.08-7.15,3.99-5.66,1.99-11.17,4.2-15.96,7.98-1.7,1.34-3.82,2.91-6.1,1.19-2.18-1.65-1.35-4.04-.9-6.23,1.51-7.29,4.5-14.3,4.05-22.42h0Z"/><path d="m289.73,299.65c-10.1-1.44-20.99-.1-31.77-1.39-3.69-.45-6.58-3.27-6.86-7.11-.31-4.29,1.58-7.21,5.52-8.08,6.44-1.42,12.9.17,19.34.27,5.21.09,10.44.43,15.66.51,5.88.09,9.18,3.98,8.42,9.78-.55,4.22-3.53,6.08-10.32,6.02h0Z"/><path d="m193.72,287.77c8.79-4.27,14.78-10.11,16.23-19.9,4.74,10.1,14.02,12.96,23.09,16.13.8.28,1.87.48,1.78,1.6-.07,1.01-1.1,1.24-1.88,1.59-4.43,1.96-9.1,3.43-13.02,6.46-3.17,2.45-6.27,4.95-7.9,8.79-.31.74-.4,1.96-1.6,1.69-.96-.21-1.16-1.29-1.27-2.12-.62-4.79-3.41-8.18-7-11.09-2.25-1.83-5.13-2.13-8.44-3.15h.01Z"/></svg>